HIERARCHY
ROOT pelvis
{
  OFFSET 0 100 0
  CHANNELS 6 Xposition Yposition Zposition Zrotation Xrotation Yrotation
  JOINT pelvis_right_femur
  {
    OFFSET -10.78128 -3.44521 -0.5502486
    CHANNELS 3 Zrotation Xrotation Yrotation
    JOINT right_femur_tibia
    {
      OFFSET -0.8047443 -44.0398 -0.1307829
      CHANNELS 3 Zrotation Xrotation Yrotation
      JOINT right_tibia_foot
      {
        OFFSET 3.006224 -47.83518 -5
        CHANNELS 3 Zrotation Xrotation Yrotation
        End Site
        {
          OFFSET 0 -5 15
        }
      }
    }
  }
  JOINT pelvis_left_femur
  {
    OFFSET 10.78128 -3.44521 -0.5502486
    CHANNELS 3 Zrotation Xrotation Yrotation
    JOINT left_femur_tibia
    {
      OFFSET 0.8047443 -44.0398 -0.1307829
      CHANNELS 3 Zrotation Xrotation Yrotation
      JOINT left_tibia_foot
      {
        OFFSET -4.370144 -48.10324 -4.275266
        CHANNELS 3 Zrotation Xrotation Yrotation
        End Site
        {
          OFFSET 0 -5 15
        }
      }
    }
  }
  JOINT pelvis_spine1
  {
    OFFSET 0 6.468898 -3.129235
    CHANNELS 3 Zrotation Xrotation Yrotation
    JOINT spine1
    {
      OFFSET 0 23.15396 4.99043
      CHANNELS 3 Zrotation Xrotation Yrotation
      JOINT spine2
      {
        OFFSET 0 20.79997 -5.064912
        CHANNELS 3 Zrotation Xrotation Yrotation
        JOINT neck
        {
          OFFSET 0 14.38658 9.616178
          CHANNELS 3 Zrotation Xrotation Yrotation
          End Site
          {
            OFFSET 0 20 0
          }
        }
      }
      JOINT right_manubrium
      {
        OFFSET -5.722621 16.35077 3.967754
        CHANNELS 3 Zrotation Xrotation Yrotation
        JOINT right_clavicle
        {
          OFFSET -13.16364 1.694482 -4.693211
          CHANNELS 3 Zrotation Xrotation Yrotation
          JOINT right_humerus
          {
            OFFSET -28.5034 -0.3100689 -2.792744
            CHANNELS 3 Zrotation Xrotation Yrotation
            JOINT right_radius
            {
              OFFSET -25.15693 0.02248979 -1.271978
              CHANNELS 3 Zrotation Xrotation Yrotation
              End Site
              {
                OFFSET -15 0 0
              }
            }
          }
        }
      }
      JOINT left_manubrium
      {
        OFFSET 5.722621 16.35077 3.967754
        CHANNELS 3 Zrotation Xrotation Yrotation
        JOINT left_clavicle
        {
          OFFSET 13.16364 1.694482 -4.693211
          CHANNELS 3 Zrotation Xrotation Yrotation
          JOINT left_humerus
          {
            OFFSET 29.39168 -1.063119 -2.237045
            CHANNELS 3 Zrotation Xrotation Yrotation
            JOINT left_radius
            {
              OFFSET 24.59957 -0.9528479 0.9047498
              CHANNELS 3 Zrotation Xrotation Yrotation
              End Site
              {
                OFFSET 15 -0 -0
              }
            }
          }
        }
      }
    }
  }
}
MOTION
Frames: 23
Frame Time: 0.0416666666667
0 103.5113 0 2.224506 -1.152715 0.2900126 1.160543 -9.845118 8.648545 -0 33.67121 -0 -5.250944 -17.88905 -2.167783 -8.081373 10.03552 -23.41228 -0 5.425421 -0 7.573473 -16.08032 26.45542 -4.34801 -5.087927 4.992635 2.017944 9.201692 -7.725755 0.825945 22.81887 7.172687 3.252606 -23.08156 8.787237 6.354823 -19.71606 11.56824 86.35394 35.9604 -19.832 -0 0 16.17111 -7.587169 8.264241 4.619127 5.509435 -19.49977 -1.698611 -94.72725 29.73352 22.8348 0 0 -16.06344 3.515518 17.88911 9.53863
0.3338031 103.5227 1.462782 2.156621 -0.9729846 0.5179938 1.265969 -10.26793 8.416732 -0 32.07877 -0 -5.274708 -17.43221 -1.892613 -8.027666 10.04082 -23.12719 -0 6.061459 -0 7.232651 -16.16018 26.0586 -4.290198 -4.975139 5.000821 2.083339 9.15401 -7.71679 0.8254247 22.74529 7.18657 3.273745 -23.16257 8.775639 6.308467 -19.58744 11.55354 86.42257 35.96538 -19.94237 -0 0 15.93262 -7.649302 8.337211 4.649526 5.573911 -19.56937 -1.709593 -94.54043 29.66767 22.55351 0 0 -16.4103 3.585647 17.77493 9.489892
0.6701986 103.5186 3.09978 2.067065 -0.7394851 0.7343022 1.392735 -10.71571 8.102082 -0 29.90615 -0 -5.315251 -16.8414 -1.513414 -7.957487 9.998898 -22.71471 -0 7.051821 -0 6.729832 -16.19917 25.48398 -4.202329 -4.834096 5.016626 2.163797 9.091309 -7.702645 0.8200403 22.65355 7.203023 3.298659 -23.25869 8.751895 6.243639 -19.40943 11.53411 86.52118 35.97198 -20.08548 -0 0 15.60547 -7.745634 8.444418 4.69923 5.645608 -19.65569 -1.728993 -94.29483 29.57005 22.19046 0 0 -16.84242 3.671438 17.61324 9.436114
1.008742 103.505 4.955903 1.964849 -0.4697214 0.9415186 1.523906 -11.08325 7.722817 -0 27.27639 -0 -5.375397 -16.17042 -1.049147 -7.876034 9.881209 -22.18378 -0 8.415323 -0 6.072053 -16.15013 24.74563 -4.084039 -4.680567 5.042109 2.249345 9.018599 -7.682824 0.807242 22.5542 7.219562 3.323515 -23.35558 8.712431 6.163092 -19.19062 11.51153 86.64689 35.97979 -20.24829 -0 0 15.2073 -7.878076 8.584412 4.770684 5.710504 -19.74849 -1.758416 -94.01027 29.44151 21.77914 0 0 -17.31015 3.761925 17.40958 9.388192
1.349441 103.4912 7.069776 1.857432 -0.1785801 1.143345 1.647482 -11.29292 7.294196 -0 24.29696 -0 -5.456302 -15.46285 -0.5166793 -7.786607 9.665987 -21.54476 -0 10.15145 -0 5.272836 -15.97897 23.86296 -3.936471 -4.526404 5.078984 2.33224 8.940202 -7.656758 0.7854709 22.45542 7.234076 3.345374 -23.44214 8.65489 6.069319 -18.93953 11.48731 86.79556 35.98821 -20.4189 -0 0 14.75478 -8.047874 8.755081 4.865641 5.758467 -19.83982 -1.79868 -93.70307 29.28334 21.34684 0 0 -17.77517 3.848827 17.16935 9.353901
1.693035 103.4875 9.473204 1.751071 0.120563 1.343832 1.75552 -11.29256 6.829212 -0 21.06288 -0 -5.556752 -14.75337 0.06868377 -7.690872 9.33487 -20.8099 -0 12.2365 -0 4.353829 -15.66585 22.86285 -3.762945 -4.379325 5.12923 2.406728 8.860036 -7.623319 0.7542891 22.36322 7.244624 3.362171 -23.51011 8.578017 5.964583 -18.66547 11.46304 86.9603 35.9965 -20.58478 -0 0 14.26514 -8.256442 8.953567 4.985615 5.783419 -19.92384 -1.849573 -93.3864 29.09727 20.91544 0 0 -18.21018 3.926352 16.89791 9.337885
2.041354 103.5028 12.18999 1.651997 0.4137046 1.546633 1.841769 -11.04444 6.339562 -0 17.66214 -0 -5.672364 -14.07215 0.6925453 -7.589465 8.864665 -19.99293 -0 14.62419 -0 3.345145 -15.20327 21.78127 -3.569619 -4.24334 5.196322 2.468117 8.782147 -7.579909 0.7143169 22.28239 7.248997 3.372479 -23.55246 8.481054 5.850966 -18.37982 11.44075 87.12935 36.00399 -20.72936 -0 0 13.75862 -8.507297 9.176474 5.133017 5.782667 -19.99586 -1.909679 -93.07135 28.88521 20.50377 0 0 -18.59588 3.99023 16.6003 9.34246
2.39773 103.5426 15.23399 1.567926 0.6837202 1.75423 1.898998 -10.51162 5.836627 -0 14.18213 -0 -5.794615 -13.45001 1.340703 -7.482429 8.217323 -19.10843 -0 17.24703 -0 2.285343 -14.59354 20.66465 -3.366257 -4.119297 5.286704 2.511654 8.71135 -7.521374 0.6671356 22.21761 7.244189 3.375212 -23.56147 8.362975 5.730418 -18.09756 11.42326 87.28356 36.01033 -20.82802 -0 0 13.26128 -8.808418 9.420108 5.312579 5.756045 -20.05129 -1.976209 -92.76837 28.6489 20.1305 0 0 -18.9173 4.036509 16.28101 9.368627
2.767345 103.6072 18.60691 1.509052 0.9090208 1.96718 1.917503 -9.648887 5.332241 -0 10.71343 -0 -5.910334 -12.9217 1.998698 -7.368988 7.334318 -18.17136 -0 20.01887 -0 1.220133 -13.84698 19.56949 -3.166473 -4.005444 5.410552 2.53179 8.653571 -7.439464 0.6151545 22.17421 7.226122 3.369431 -23.52747 8.222012 5.604774 -17.83789 11.41436 87.39536 36.01572 -20.84606 -0 0 12.80637 -9.173543 9.680596 5.53218 5.705177 -20.08489 -2.044978 -92.48808 28.38981 19.81589 0 0 -19.16119 4.060764 15.94382 9.416821
3.157258 103.6913 22.29676 1.48744 1.065233 2.183621 1.886102 -8.404984 4.838936 -0 7.347194 -0 -6.002873 -12.52404 2.652123 -7.246648 6.143019 -17.19662 -0 22.84246 -0 0.1977661 -12.98068 18.55683 -2.986403 -3.898263 5.580579 2.522442 8.615413 -7.323817 0.5613161 22.15795 7.190013 3.354373 -23.43952 8.055881 5.475729 -17.6227 11.41843 87.43163 36.0207 -20.74211 -0 0 12.43167 -9.620477 9.953848 5.801985 5.632876 -20.091 -2.110874 -92.24091 28.10916 19.58101 0 0 -19.31554 4.058236 15.59181 9.48713
3.575958 103.7844 26.27863 1.514637 1.129998 2.399403 1.7953 -6.736401 4.369527 -0 4.166051 -0 -6.055243 -12.28908 3.287807 -7.110341 4.575794 -16.1983 -0 25.62258 -0 -0.7387365 -12.01685 17.68183 -2.841668 -3.793715 5.808784 2.478229 8.602894 -7.164561 0.5086117 22.17379 7.131457 3.329681 -23.28787 7.862743 5.34479 -17.47257 11.43943 87.36101 36.02545 -20.47729 -0 0 12.17257 -10.16626 10.23544 6.13177 5.542568 -20.06471 -2.168867 -92.03561 27.80832 19.44411 0 0 -19.37119 4.024882 15.2277 9.579069
4.032531 103.8735 30.51765 1.598884 1.088083 2.608848 1.640197 -4.623367 3.936362 -0 1.23525 -0 -6.05363 -12.23618 3.895065 -6.952671 2.591316 -15.189 -0 28.27838 -0 -1.558494 -10.98062 16.98386 -2.744219 -3.688573 6.102886 2.395851 8.620113 -6.955155 0.4596171 22.22451 7.047605 3.295649 -23.06668 7.642299 5.21329 -17.40248 11.47987 87.16161 36.02892 -20.02509 -0 0 12.0547 -10.82195 10.52061 6.527941 5.437775 -20.00314 -2.215094 -91.87757 27.48908 19.41672 0 0 -19.32387 3.958479 14.85413 9.691358
4.535833 103.945 34.97342 1.743449 0.9340074 2.805802 1.421104 -2.079239 3.550758 0 -1.398553 0 -5.989308 -12.36712 4.466017 -6.765502 0.1875056 -14.17946 -0 30.7475 -0 -2.244996 -9.898253 16.48242 -2.700814 -3.581398 6.464221 2.274761 8.668615 -6.694028 0.4162935 22.30982 6.937887 3.253349 -22.77551 7.396499 5.082526 -17.41951 11.54023 86.82532 36.02824 -19.37679 -0 0 12.09013 -11.59002 10.8043 6.991894 5.321754 -19.90606 -2.247543 -91.76802 27.15383 19.50146 0 0 -19.17469 3.858981 14.47382 9.822058
5.093961 103.9871 39.60465 1.946206 0.6722177 2.984586 1.142201 0.8462622 3.222864 0 -3.69964 0 -5.85861 -12.66353 4.994599 -6.542445 -2.593406 -13.17914 -0 32.98046 -0 -2.793832 -8.797259 16.17875 -2.713242 -3.473142 6.887028 2.117152 8.747489 -6.385099 0.3800786 22.42591 6.804304 3.204639 -22.41942 7.129918 4.954009 -17.52254 11.61872 86.35862 36.01849 -18.54255 -0 0 12.27726 -12.46439 11.0815 7.519775 5.197349 -19.77575 -2.266314 -91.70395 26.80582 19.69175 0 0 -18.92947 3.728049 14.08948 9.969129
5.714127 103.9911 44.3735 2.19975 0.3164367 3.140707 0.8096819 4.065021 2.961771 0 -5.630465 0 -5.661895 -13.08436 5.474618 -6.281831 -5.661812 -12.19803 -0 34.92929 -0 -3.208482 -7.708466 16.05947 -2.779324 -3.367625 7.358119 1.927733 8.853785 -6.037961 0.352124 22.56513 6.651633 3.152156 -22.00868 6.850122 4.829791 -17.70266 11.71115 85.78203 35.99296 -17.55089 -0 0 12.60223 -13.4316 11.34741 8.102805 5.066976 -19.61667 -2.27375 -91.67818 26.44935 19.97183 0 0 -18.59739 3.568237 13.70369 10.13117
6.402842 103.9538 49.24944 2.491714 -0.1111404 3.271313 0.4303816 7.449605 2.775459 0 -7.140306 0 -5.402537 -13.56418 5.897702 -5.989795 -8.879445 -11.24927 -0 36.53708 -0 -3.496299 -6.668401 16.10026 -2.893932 -3.271763 7.856786 1.7135 8.982995 -5.667892 0.3335033 22.71575 6.487543 3.099244 -21.55841 6.567896 4.71269 -17.94381 11.81086 85.12911 35.94383 -16.4478 -0 0 13.04046 -14.47213 11.59789 8.727744 4.932689 -19.4351 -2.274467 -91.67952 26.09018 20.31713 0 0 -18.18989 3.382268 13.31873 10.30802
7.16619 103.8779 54.21209 2.805852 -0.5818023 3.375418 0.01106916 10.8409 2.670051 0 -8.163774 0 -5.086365 -14.01737 6.252456 -5.682259 -12.06876 -10.35104 -0 37.73617 -0 -3.665765 -5.718806 16.26937 -3.049842 -3.194956 8.356219 1.483247 9.129621 -5.294777 0.3252367 22.86264 6.322094 3.049629 -21.08743 6.296588 4.606157 -18.22433 11.90917 84.44338 35.86352 -15.29304 -0 0 13.55933 -15.56207 11.82975 9.377907 4.796258 -19.23862 -2.274952 -91.69366 25.73538 20.69623 0 0 -17.71976 3.172704 12.93653 10.50082
8.009945 103.7731 59.25208 3.124437 -1.064568 3.45389 -0.4416826 14.07069 2.648372 0 -8.634123 0 -4.721329 -14.35248 6.525857 -5.383855 -15.04056 -9.525919 -0 38.45942 -0 -3.725324 -4.901144 16.53219 -3.238625 -3.147157 8.827602 1.246501 9.287957 -4.940066 0.3280925 22.98968 6.16614 3.006756 -20.61574 6.050038 4.513638 -18.52045 11.99683 83.77151 35.74653 -14.15123 -0 0 14.123 -16.67589 12.04114 10.03527 4.659247 -19.03521 -2.282386 -91.70548 25.39243 21.07556 0 0 -17.20026 2.942095 12.55874 10.71118
8.939397 103.6539 64.36957 3.431302 -1.531617 3.509269 -0.921052 16.99139 2.708519 0 -8.504709 0 -4.316886 -14.49183 6.706189 -5.123198 -17.63048 -8.797231 -0 38.65862 -0 -3.683478 -4.248599 16.85606 -3.451558 -3.136297 9.245524 1.012145 9.452897 -4.622778 0.3423065 23.08303 6.029198 2.973075 -20.16119 5.839837 4.437723 -18.81043 12.06593 83.15486 35.59074 -13.08054 -0 0 14.69815 -17.78956 12.23165 10.68309 4.523135 -18.83235 -2.303114 -91.70171 25.06781 21.42524 0 0 -16.64465 2.69342 12.18685 10.93991
9.958925 103.5381 69.57126 3.713928 -1.962163 3.545473 -1.418905 19.49528 2.843125 0 -7.765554 0 -3.883091 -14.38562 6.785445 -4.926569 -19.72328 -8.184348 -0 38.31784 -0 -3.549502 -3.78093 17.21355 -3.680233 -3.166349 9.591622 0.7875425 9.620419 -4.356831 0.3674011 23.13345 5.91796 2.949666 -19.73716 5.673504 4.379586 -19.07747 12.11122 82.624 35.39756 -12.12523 -0 0 15.25749 -18.88258 12.40225 11.30758 4.389595 -18.63662 -2.341613 -91.67234 24.76603 21.72224 0 0 -16.06671 2.430537 11.82235 11.18589
11.07133 103.4437 74.86685 3.96374 -2.343503 3.567435 -1.92419 21.5145 3.039084 0 -6.450396 0 -3.429972 -14.01603 6.759876 -4.812539 -21.25538 -7.698829 -0 37.45729 -0 -3.334392 -3.504499 17.58271 -3.916458 -3.236479 9.854939 0.5786078 9.787606 -4.150845 0.4021044 23.13692 5.836068 2.936267 -19.35191 5.554245 4.338884 -19.30983 12.13053 82.19848 35.17112 -11.31547 -0 0 15.77938 -19.93766 12.55531 11.89783 4.261057 -18.45443 -2.400399 -91.60989 24.48929 21.94898 0 0 -15.48308 2.158669 11.46684 11.44527
12.27684 103.3862 80.26563 4.175064 -2.67023 3.580684 -2.420959 23.00711 3.277056 0 -4.639451 0 -2.967718 -13.39516 6.629019 -4.788552 -22.2024 -7.342022 -0 36.13216 -0 -3.052072 -3.415746 17.94502 -4.151431 -3.340681 10.02997 0.3906796 9.952385 -4.009741 0.4442416 23.09425 5.784726 2.931454 -19.0092 5.48169 4.313866 -19.49899 12.12449 81.89042 34.91737 -10.67278 -0 0 16.24424 -20.93871 12.69478 12.44431 4.141611 -18.29362 -2.4806 -91.50683 24.23785 22.08833 0 0 -14.91752 1.885083 11.1222 11.7106
13.57174 103.3756 85.77325 4.343644 -2.942934 3.59092 -2.886568 23.93956 3.530779 0 -2.46176 0 -2.507542 -12.56162 6.394245 -4.849519 -22.56286 -7.104143 -0 34.43076 -0 -2.720646 -3.505386 18.28238 -4.374579 -3.467485 10.11408 0.2296433 10.1132 -3.936836 0.4905721 23.01034 5.763544 2.932783 -18.70915 5.452853 4.30151 -19.63728 12.0962 81.7091 34.64347 -10.21689 -0 0 16.6301 -21.8681 12.82668 12.93693 4.038016 -18.16534 -2.582728 -91.35272 24.01036 22.11771 0 0 -14.40579 1.619861 10.79076 11.97
